<?xml version="1.0" encoding="UTF-8" standalone="no"?>
<!-- Created with Inkscape (http://www.inkscape.org/) -->

<svg
   width="256"
   height="256"
   viewBox="0 0 67.733332 67.733333"
   version="1.1"
   id="svg1"
   sodipodi:docname="favicon.svg"
   inkscape:version="1.4.3 (0d15f75042, 2025-12-25)"
   xmlns:inkscape="http://www.inkscape.org/namespaces/inkscape"
   xmlns:sodipodi="http://sodipodi.sourceforge.net/DTD/sodipodi-0.dtd"
   xmlns="http://www.w3.org/2000/svg"
   xmlns:svg="http://www.w3.org/2000/svg">
  <sodipodi:namedview
     id="namedview1"
     pagecolor="#ffffff"
     bordercolor="#000000"
     borderopacity="0.25"
     inkscape:showpageshadow="2"
     inkscape:pageopacity="0.0"
     inkscape:pagecheckerboard="0"
     inkscape:deskcolor="#d1d1d1"
     inkscape:document-units="mm"
     showgrid="false"
     inkscape:zoom="0.99999999"
     inkscape:cx="186"
     inkscape:cy="192"
     inkscape:window-width="1536"
     inkscape:window-height="803"
     inkscape:window-x="0"
     inkscape:window-y="0"
     inkscape:window-maximized="1"
     inkscape:current-layer="layer1"
     showguides="true" />
  <defs
     id="defs1">
    <linearGradient
       id="swatch12"
       inkscape:swatch="solid">
      <stop
         style="stop-color:#f6b82d;stop-opacity:1;"
         offset="0"
         id="stop12" />
    </linearGradient>
    <linearGradient
       id="swatch11">
      <stop
         style="stop-color:#f6b82d;stop-opacity:1;"
         offset="0"
         id="stop11" />
    </linearGradient>
    <filter
       inkscape:collect="always"
       style="color-interpolation-filters:sRGB"
       id="filter2"
       x="-0.0083564112"
       y="-0.0082920691"
       width="1.0143675"
       height="1.0164562">
      <feGaussianBlur
         inkscape:collect="always"
         stdDeviation="0.097126165"
         id="feGaussianBlur2" />
    </filter>
    <filter
       inkscape:collect="always"
       style="color-interpolation-filters:sRGB"
       id="filter3"
       x="-0.0095687254"
       y="-0.010349146"
       width="1.0168156"
       height="1.0205836">
      <feGaussianBlur
         inkscape:collect="always"
         stdDeviation="0.13527499"
         id="feGaussianBlur3" />
    </filter>
  </defs>
  <g
     inkscape:label="Katman 1"
     inkscape:groupmode="layer"
     id="layer1">
    <path
       style="opacity:0.339579;fill:#f6d32d;fill-opacity:1;stroke:none;stroke-width:0.307999;stroke-linecap:square;stroke-dashoffset:3.40157;paint-order:stroke fill markers"
       d="m 19.895426,28.83545 -3.410644,9.198404"
       id="path4" />
    <g
       id="g6">
      <path
         id="text3"
         style="font-size:69.6179px;line-height:943.265px;font-family:Ethnocentric;-inkscape-font-specification:'Ethnocentric, Normal';text-align:center;letter-spacing:0.118114px;word-spacing:0px;text-orientation:sideways;text-anchor:middle;opacity:1;mix-blend-mode:normal;fill:#583d00;fill-opacity:1;stroke:none;stroke-width:0.286447;stroke-linecap:square;stroke-dashoffset:3.40157;stroke-opacity:1;paint-order:stroke fill markers"
         d="M 47.327589 0.79825027 C 42.802425 0.79825027 39.947861 3.3045711 37.99856 6.0196691 L 8.1325034 48.138616 L 25.189114 48.138616 L 47.048641 17.228265 L 55.402783 29.550589 C 56.934377 31.778361 58.975465 34.572957 60.228587 36.243787 C 58.161031 35.973129 54.614051 36.065302 51.829384 36.056735 L 40.179362 36.020892 L 31.45472 48.138616 L 85.617166 48.138616 L 56.517145 6.0196691 C 54.498226 3.0957174 51.643898 0.79825027 47.327589 0.79825027 z M 42.810774 7.0307239 L 43.484541 7.600469 L 42.513944 8.9262651 C 42.413507 9.063395 42.430858 9.1422655 42.616941 9.1794022 C 42.803026 9.2165393 42.922051 9.1649485 43.022488 9.0278186 L 43.784232 7.9880152 C 44.1253 7.5223448 44.643591 7.337286 45.311294 7.4705403 C 46.061094 7.6201785 46.336104 7.9469562 45.909245 8.5297584 L 44.605341 10.309558 L 43.942302 9.7416801 L 45.00159 8.2960359 C 45.10412 8.156049 45.072982 8.0781405 44.881428 8.039912 C 44.695351 8.0027764 44.572688 8.0503887 44.470158 8.1903755 L 43.708415 9.2301789 C 43.348514 9.7215611 42.762108 9.8631817 42.132715 9.7375731 C 41.443119 9.5999497 41.170079 9.2702478 41.594846 8.6903025 L 42.810774 7.0307239 z M 40.939675 9.5844962 L 42.561151 11.208232 L 43.770642 11.449422 L 43.335769 12.043809 L 42.120556 11.801126 L 38.820384 12.478771 L 39.37685 11.718613 L 40.729391 11.46473 C 40.904684 11.430949 41.355952 11.337644 41.494711 11.319493 C 41.417926 11.261601 41.307589 11.164163 41.090593 10.963683 L 40.396084 10.32748 L 40.939675 9.5844962 z M 38.642286 12.721454 L 39.316769 13.291573 L 38.345457 14.616996 C 38.245019 14.754125 38.262371 14.832996 38.448453 14.870133 C 38.634538 14.90727 38.754279 14.855679 38.854716 14.718549 L 39.616459 13.678746 C 39.957528 13.213075 40.475103 13.02839 41.142807 13.161644 C 41.892606 13.311282 42.167616 13.637687 41.740757 14.220489 L 40.437568 16.000662 L 39.77453 15.432784 L 40.833103 13.98714 C 40.935633 13.847153 40.905209 13.768871 40.713656 13.730642 C 40.527578 13.693507 40.404916 13.741119 40.302386 13.881106 L 39.540642 14.920909 C 39.180742 15.412292 38.594335 15.553912 37.964943 15.428304 C 37.275347 15.29068 37.002307 14.961352 37.427073 14.381406 L 38.642286 12.721454 z M 36.56448 15.558232 L 37.238962 16.128351 L 36.26765 17.453774 C 36.167215 17.590901 36.184564 17.669774 36.370646 17.706911 C 36.556731 17.744048 36.676472 17.69283 36.776909 17.5557 L 37.538653 16.515524 C 37.879721 16.049853 38.397297 15.865168 39.065 15.998422 C 39.814799 16.14806 40.08981 16.474838 39.662951 17.05764 L 38.359762 18.83744 L 37.696723 18.269562 L 38.755296 16.823918 C 38.857827 16.683929 38.827403 16.606022 38.635849 16.567794 C 38.449772 16.530658 38.327109 16.577897 38.224579 16.717884 L 37.462836 17.758061 C 37.102935 18.249443 36.516529 18.391064 35.887136 18.265455 C 35.19754 18.127832 34.924501 17.798129 35.349267 17.218184 L 36.56448 15.558232 z M 34.472368 18.415172 L 36.535869 18.826986 C 37.641412 19.04762 37.902916 19.554958 37.321216 20.349169 C 36.647448 21.269082 35.80393 21.555843 34.698387 21.335209 L 32.634886 20.923394 L 33.066183 20.334981 L 35.129684 20.746796 C 35.67151 20.854928 35.934254 20.769883 36.379945 20.161369 C 36.712644 19.707126 36.614741 19.524044 36.100281 19.421373 L 34.03678 19.009558 L 34.472368 18.415172 z M 32.383833 21.266511 L 33.056169 21.839243 L 32.333765 22.824909 C 32.099411 23.144879 32.293766 23.461889 32.813699 23.565652 C 33.344578 23.6716 33.861236 23.506273 34.101867 23.177733 L 34.631154 22.454911 L 34.100437 22.348877 L 33.376602 23.33753 L 32.820136 22.820429 L 33.715631 21.59768 L 36.003722 22.054297 L 35.043139 23.365532 C 34.557692 24.028326 33.395523 24.356254 32.333765 24.144358 C 31.261062 23.930278 30.896317 23.297664 31.381765 22.63487 L 32.383833 21.266511 z M 31.087081 24.287728 C 31.256528 24.282347 31.438963 24.296775 31.634964 24.335891 C 32.204153 24.449485 32.538661 24.729016 32.428893 25.0673 C 32.57006 25.02016 32.754184 24.974889 33.107667 24.894809 L 34.076118 24.685355 L 33.496764 25.476875 L 32.216464 25.709104 L 31.550564 26.617485 L 32.51973 26.810885 L 32.086288 27.402284 L 30.214474 27.028926 L 31.432548 25.365987 C 31.566464 25.183147 31.512644 25.008523 31.260887 24.95828 C 30.976292 24.901483 30.743551 24.996258 30.594988 25.199096 L 29.377629 26.861661 L 28.707438 26.285943 L 29.607225 25.057593 C 29.865642 24.704769 30.352809 24.311045 31.087081 24.287728 z M 31.873143 27.693504 L 30.245229 29.916481 L 29.565025 29.371377 L 29.916929 28.891238 C 30.000627 28.776963 30.098618 28.642949 30.176565 28.553722 C 30.00755 28.578932 29.72468 28.613938 29.503513 28.641835 L 28.284009 28.791551 L 30.057118 30.173351 L 29.544283 30.873399 L 27.130308 28.986818 C 26.97545 28.864228 26.864838 28.708056 27.000847 28.52236 C 27.130579 28.345233 27.396942 28.264009 27.687489 28.227033 L 31.873143 27.693504 z "
         transform="matrix(0.72249282,0,0,1.3840968,0.7952353,-0.13230519)" />
      <path
         id="text4"
         style="font-size:68.3015px;line-height:925.424px;font-family:Ethnocentric;-inkscape-font-specification:'Ethnocentric, Normal';text-align:center;letter-spacing:0.11588px;word-spacing:0px;text-orientation:sideways;text-anchor:middle;opacity:1;fill:#745510;fill-opacity:1;stroke-width:0.287243;stroke-linecap:square;stroke-dashoffset:3.40157;paint-order:stroke fill markers;stroke:#000000;stroke-opacity:1;filter:url(#filter3)"
         d="m 26.116121,10.949719 -2.590799,0.07028 C 9.0461739,11.412073 3.0467284,16.620379 3.0467284,25.226367 c 0,6.552062 4.9250799,11.812884 13.3496236,13.206865 l 2.773902,-9.584864 c -0.609238,-0.907744 -1.852808,-1.44696 -1.852808,-2.802413 0,-1.962436 1.172413,-2.851425 3.602501,-3.079915 l 0.525286,-0.04703 z m 38.445352,0.07028 -21.827066,0.06872 4.411513,11.909604 8.346265,-0.09379 z m -31.85392,18.230158 -3.435369,9.346099 17.682591,-0.264229 c 7.25839,0.01557 6.016407,2.385273 7.438222,5.204334 l 3.967067,11.07426 c 5.425525,-2.445978 7.931497,-6.94436 7.931497,-12.863298 0,-8.332783 -6.303971,-12.491228 -17.934735,-12.491228 z m -21.88303,15.715574 -9.1511394,11.794375 24.4044074,-0.04677 2.686248,-6.856105 c 3.589685,0.06177 10.007019,0.01854 13.20555,0.09854 1.280519,0.03205 2.045647,0.157757 1.942032,0.254467 l -2.100212,-5.232857 z"
         sodipodi:nodetypes="ccsccscccccccccccccsccccccsccc" />
      <path
         id="path5"
         style="font-size:69.6179px;line-height:943.265px;font-family:Ethnocentric;-inkscape-font-specification:'Ethnocentric, Normal';text-align:center;letter-spacing:0.118114px;word-spacing:0px;text-orientation:sideways;text-anchor:middle;fill:none;fill-opacity:1;stroke-width:0.286447;stroke-linecap:square;stroke-dashoffset:3.40157;paint-order:stroke fill markers;stroke:#000000;stroke-opacity:1"
         d="M 34.193778 1.1048421 C 30.924379 1.1048421 28.861977 4.5738327 27.453621 8.3317912 L 5.8756104 66.628491 L 18.198889 66.628491 L 33.99224 23.845573 L 40.028048 40.900863 C 41.134613 43.984315 42.609285 47.852306 43.514657 50.164897 C 42.020862 49.79028 39.458195 49.917856 37.446293 49.905998 L 29.029236 49.856388 L 22.725745 66.628491 L 61.857723 66.628491 L 40.833167 8.3317912 C 39.374513 4.284759 37.31228 1.1048421 34.193778 1.1048421 z M 31.725712 9.5988973 L 32.212504 10.38748 L 31.511255 12.22251 C 31.43869 12.412311 31.451226 12.521475 31.585669 12.572876 C 31.720114 12.624277 31.806109 12.552871 31.878674 12.36307 L 32.429028 10.923881 C 32.675448 10.279348 33.049909 10.023209 33.53232 10.207646 C 34.074045 10.414759 34.272738 10.867051 33.964335 11.673706 L 33.022274 14.137122 L 32.543233 13.351123 L 33.308561 11.350212 C 33.382638 11.156456 33.360141 11.048623 33.221745 10.995711 C 33.087305 10.944312 32.998682 11.010212 32.924605 11.203967 L 32.374251 12.643156 C 32.114226 13.323276 31.690551 13.519293 31.235819 13.345439 C 30.737591 13.154955 30.540322 12.698615 30.847213 11.895915 L 31.725712 9.5988973 z M 30.373857 13.133565 L 31.545361 15.380973 L 32.41921 15.714803 L 32.105017 16.537492 L 31.227035 16.201595 L 28.842684 17.139522 L 29.244727 16.08739 L 30.221928 15.73599 C 30.348576 15.689235 30.674614 15.560091 30.774866 15.534969 C 30.719389 15.454841 30.639671 15.319977 30.482894 15.042493 L 29.981116 14.161926 L 30.373857 13.133565 z M 28.71401 17.475419 L 29.201318 18.264518 L 28.499552 20.099032 C 28.426987 20.288832 28.439523 20.397997 28.573966 20.449398 C 28.708411 20.500799 28.794923 20.429393 28.867489 20.239591 L 29.417843 18.800403 C 29.664262 18.15587 30.038207 17.900247 30.520618 18.084684 C 31.062342 18.291798 31.261035 18.743573 30.952633 19.550228 L 30.011088 22.01416 L 29.532048 21.228162 L 30.296859 19.22725 C 30.370936 19.033495 30.348955 18.925145 30.210559 18.872233 C 30.07612 18.820834 29.987497 18.886734 29.91342 19.080489 L 29.363066 20.519678 C 29.10304 21.199798 28.679366 21.395815 28.224634 21.22196 C 27.726406 21.031476 27.529136 20.575654 27.836027 19.772953 L 28.71401 17.475419 z M 27.212809 21.401794 L 27.700118 22.190894 L 26.998352 24.025407 C 26.925788 24.215204 26.938323 24.324372 27.072766 24.375773 C 27.207211 24.427175 27.293723 24.356285 27.366288 24.166484 L 27.916642 22.726778 C 28.163062 22.082245 28.537006 21.826623 29.019417 22.01106 C 29.561142 22.218173 29.759835 22.670465 29.451432 23.47712 L 28.509888 25.940535 L 28.030847 25.154537 L 28.795658 23.153625 C 28.869736 22.959868 28.847755 22.852037 28.709359 22.799125 C 28.574919 22.747726 28.486296 22.813109 28.412219 23.006864 L 27.861865 24.44657 C 27.601839 25.126691 27.178165 25.322707 26.723433 25.148853 C 26.225205 24.958368 26.027936 24.502028 26.334827 23.699329 L 27.212809 21.401794 z M 25.701274 25.356075 L 27.192139 25.926066 C 27.990885 26.231445 28.17982 26.933649 27.759546 28.032914 C 27.272754 29.306163 26.663318 29.703068 25.864571 29.397689 L 24.373706 28.827698 L 24.685315 28.013277 L 26.17618 28.583268 C 26.567645 28.732934 26.757476 28.615224 27.079484 27.772982 C 27.319857 27.144265 27.249123 26.890862 26.877429 26.748755 L 25.386564 26.178764 L 25.701274 25.356075 z M 24.192322 29.302604 L 24.67808 30.095321 L 24.156148 31.459578 C 23.986829 31.902448 24.127249 32.34122 24.502897 32.484839 C 24.886453 32.631481 25.259735 32.402653 25.43359 31.947921 L 25.815995 30.947465 L 25.432556 30.800704 L 24.909591 32.169096 L 24.507548 31.453377 L 25.154537 29.760974 L 26.807666 30.392977 L 26.113652 32.207853 C 25.762919 33.125225 24.923261 33.579108 24.156148 33.285824 C 23.381128 32.989515 23.117603 32.113917 23.468335 31.196545 L 24.192322 29.302604 z M 23.255428 33.484261 C 23.377853 33.476813 23.50966 33.496783 23.65127 33.550924 C 24.062505 33.708148 24.304184 34.095047 24.224878 34.563265 C 24.32687 34.498018 24.459898 34.435359 24.715287 34.32452 L 25.414986 34.034615 L 24.996407 35.130155 L 24.071399 35.451583 L 23.590291 36.70887 L 24.290507 36.976554 L 23.977348 37.795109 L 22.624976 37.278345 L 23.505025 34.976676 C 23.601779 34.723608 23.562894 34.481911 23.381002 34.41237 C 23.175384 34.333757 23.00723 34.464936 22.899894 34.745683 L 22.020361 37.046834 L 21.536153 36.249984 L 22.186243 34.549829 C 22.372947 34.061487 22.724922 33.516534 23.255428 33.484261 z M 23.823352 38.198185 L 22.647196 41.275 L 22.155754 40.520524 L 22.410002 39.855965 C 22.470473 39.697798 22.541271 39.512309 22.597587 39.38881 C 22.475474 39.423703 22.271103 39.472154 22.111312 39.510767 L 21.230229 39.717989 L 22.511287 41.630534 L 22.140767 42.599467 L 20.396688 39.988257 C 20.284804 39.81858 20.204888 39.602424 20.303153 39.345402 C 20.396884 39.100242 20.589329 38.987819 20.799247 38.936641 L 23.823352 38.198185 z " />
      <path
         id="path6"
         style="font-size:68.3015px;line-height:925.424px;font-family:Ethnocentric;-inkscape-font-specification:'Ethnocentric, Normal';text-align:center;letter-spacing:0.11588px;word-spacing:0px;text-orientation:sideways;text-anchor:middle;opacity:1;mix-blend-mode:normal;fill:#b08118;fill-opacity:1;stroke-width:0.281031;stroke-linecap:square;stroke-dashoffset:3.40157;paint-order:stroke fill markers;stroke:#000000;stroke-opacity:1;filter:url(#filter2)"
         d="m 26.511043,10.984859 -2.479952,0.07028 c -13.85966,0.392074 -19.6024203,5.60038 -19.6024203,14.206368 0,6.552062 4.0234116,11.391934 12.0875123,12.785915 l 3.346171,-9.163914 c -0.583172,-0.907744 -1.773536,-1.44696 -1.773536,-2.802413 0,-1.962436 1.122252,-2.851425 3.448369,-3.079915 l 0.502811,-0.04703 z m 37.203414,0.07028 -21.052669,0.0088 4.340408,12.010499 7.628061,-0.134713 z m -30.857975,18.136614 -3.450445,9.330981 17.028338,-0.147299 c 6.947841,0.01557 5.758996,2.385273 7.119979,5.204334 l 3.927925,10.991577 c 5.193395,-2.445978 7.461561,-6.861677 7.461561,-12.780615 0,-8.332783 -6.010513,-12.499496 -17.143657,-12.499496 z M 11.873694,45.000871 2.7894937,56.748474 H 26.474353 l 2.571318,-6.856105 c 3.4361,0.06177 9.57887,0.01854 12.640552,0.09854 1.225732,0.03205 1.958125,0.157757 1.858943,0.254467 l -2.010355,-5.232857 z"
         sodipodi:nodetypes="ccsccscccccccccccccsccccccsccc" />
    </g>
  </g>
  <script
     id="mesh_polyfill"
     type="text/javascript">
!function(){const t=&quot;http://www.w3.org/2000/svg&quot;,e=&quot;http://www.w3.org/1999/xlink&quot;,s=&quot;http://www.w3.org/1999/xhtml&quot;,r=2;if(document.createElementNS(t,&quot;meshgradient&quot;).x)return;const n=(t,e,s,r)=&gt;{let n=new x(.5*(e.x+s.x),.5*(e.y+s.y)),o=new x(.5*(t.x+e.x),.5*(t.y+e.y)),i=new x(.5*(s.x+r.x),.5*(s.y+r.y)),a=new x(.5*(n.x+o.x),.5*(n.y+o.y)),h=new x(.5*(n.x+i.x),.5*(n.y+i.y)),l=new x(.5*(a.x+h.x),.5*(a.y+h.y));return[[t,o,a,l],[l,h,i,r]]},o=t=&gt;{let e=t[0].distSquared(t[1]),s=t[2].distSquared(t[3]),r=.25*t[0].distSquared(t[2]),n=.25*t[1].distSquared(t[3]),o=e&gt;s?e:s,i=r&gt;n?r:n;return 18*(o&gt;i?o:i)},i=(t,e)=&gt;Math.sqrt(t.distSquared(e)),a=(t,e)=&gt;t.scale(2/3).add(e.scale(1/3)),h=t=&gt;{let e,s,r,n,o,i,a,h=new g;return t.match(/(\w+\(\s*[^)]+\))+/g).forEach(t=&gt;{let l=t.match(/[\w.-]+/g),d=l.shift();switch(d){case&quot;translate&quot;:2===l.length?e=new g(1,0,0,1,l[0],l[1]):(console.error(&quot;mesh.js: translate does not have 2 arguments!&quot;),e=new g(1,0,0,1,0,0)),h=h.append(e);break;case&quot;scale&quot;:1===l.length?s=new g(l[0],0,0,l[0],0,0):2===l.length?s=new g(l[0],0,0,l[1],0,0):(console.error(&quot;mesh.js: scale does not have 1 or 2 arguments!&quot;),s=new g(1,0,0,1,0,0)),h=h.append(s);break;case&quot;rotate&quot;:if(3===l.length&amp;&amp;(e=new g(1,0,0,1,l[1],l[2]),h=h.append(e)),l[0]){r=l[0]*Math.PI/180;let t=Math.cos(r),e=Math.sin(r);Math.abs(t)&lt;1e-16&amp;&amp;(t=0),Math.abs(e)&lt;1e-16&amp;&amp;(e=0),a=new g(t,e,-e,t,0,0),h=h.append(a)}else console.error(&quot;math.js: No argument to rotate transform!&quot;);3===l.length&amp;&amp;(e=new g(1,0,0,1,-l[1],-l[2]),h=h.append(e));break;case&quot;skewX&quot;:l[0]?(r=l[0]*Math.PI/180,n=Math.tan(r),o=new g(1,0,n,1,0,0),h=h.append(o)):console.error(&quot;math.js: No argument to skewX transform!&quot;);break;case&quot;skewY&quot;:l[0]?(r=l[0]*Math.PI/180,n=Math.tan(r),i=new g(1,n,0,1,0,0),h=h.append(i)):console.error(&quot;math.js: No argument to skewY transform!&quot;);break;case&quot;matrix&quot;:6===l.length?h=h.append(new g(...l)):console.error(&quot;math.js: Incorrect number of arguments for matrix!&quot;);break;default:console.error(&quot;mesh.js: Unhandled transform type: &quot;+d)}}),h},l=t=&gt;{let e=[],s=t.split(/[ ,]+/);for(let t=0,r=s.length-1;t&lt;r;t+=2)e.push(new x(parseFloat(s[t]),parseFloat(s[t+1])));return e},d=(t,e)=&gt;{for(let s in e)t.setAttribute(s,e[s])},c=(t,e,s,r,n)=&gt;{let o,i,a=[0,0,0,0];for(let h=0;h&lt;3;++h)e[h]&lt;t[h]&amp;&amp;e[h]&lt;s[h]||t[h]&lt;e[h]&amp;&amp;s[h]&lt;e[h]?a[h]=0:(a[h]=.5*((e[h]-t[h])/r+(s[h]-e[h])/n),o=Math.abs(3*(e[h]-t[h])/r),i=Math.abs(3*(s[h]-e[h])/n),a[h]&gt;o?a[h]=o:a[h]&gt;i&amp;&amp;(a[h]=i));return a},u=[[1,0,0,0,0,0,0,0,0,0,0,0,0,0,0,0],[0,0,0,0,1,0,0,0,0,0,0,0,0,0,0,0],[-3,3,0,0,-2,-1,0,0,0,0,0,0,0,0,0,0],[2,-2,0,0,1,1,0,0,0,0,0,0,0,0,0,0],[0,0,0,0,0,0,0,0,1,0,0,0,0,0,0,0],[0,0,0,0,0,0,0,0,0,0,0,0,1,0,0,0],[0,0,0,0,0,0,0,0,-3,3,0,0,-2,-1,0,0],[0,0,0,0,0,0,0,0,2,-2,0,0,1,1,0,0],[-3,0,3,0,0,0,0,0,-2,0,-1,0,0,0,0,0],[0,0,0,0,-3,0,3,0,0,0,0,0,-2,0,-1,0],[9,-9,-9,9,6,3,-6,-3,6,-6,3,-3,4,2,2,1],[-6,6,6,-6,-3,-3,3,3,-4,4,-2,2,-2,-2,-1,-1],[2,0,-2,0,0,0,0,0,1,0,1,0,0,0,0,0],[0,0,0,0,2,0,-2,0,0,0,0,0,1,0,1,0],[-6,6,6,-6,-4,-2,4,2,-3,3,-3,3,-2,-1,-2,-1],[4,-4,-4,4,2,2,-2,-2,2,-2,2,-2,1,1,1,1]],f=t=&gt;{let e=[];for(let s=0;s&lt;16;++s){e[s]=0;for(let r=0;r&lt;16;++r)e[s]+=u[s][r]*t[r]}return e},p=(t,e,s)=&gt;{const r=e*e,n=s*s,o=e*e*e,i=s*s*s;return t[0]+t[1]*e+t[2]*r+t[3]*o+t[4]*s+t[5]*s*e+t[6]*s*r+t[7]*s*o+t[8]*n+t[9]*n*e+t[10]*n*r+t[11]*n*o+t[12]*i+t[13]*i*e+t[14]*i*r+t[15]*i*o},y=t=&gt;{let e=[],s=[],r=[];for(let s=0;s&lt;4;++s)e[s]=[],e[s][0]=n(t[0][s],t[1][s],t[2][s],t[3][s]),e[s][1]=[],e[s][1].push(...n(...e[s][0][0])),e[s][1].push(...n(...e[s][0][1])),e[s][2]=[],e[s][2].push(...n(...e[s][1][0])),e[s][2].push(...n(...e[s][1][1])),e[s][2].push(...n(...e[s][1][2])),e[s][2].push(...n(...e[s][1][3]));for(let t=0;t&lt;8;++t){s[t]=[];for(let r=0;r&lt;4;++r)s[t][r]=[],s[t][r][0]=n(e[0][2][t][r],e[1][2][t][r],e[2][2][t][r],e[3][2][t][r]),s[t][r][1]=[],s[t][r][1].push(...n(...s[t][r][0][0])),s[t][r][1].push(...n(...s[t][r][0][1])),s[t][r][2]=[],s[t][r][2].push(...n(...s[t][r][1][0])),s[t][r][2].push(...n(...s[t][r][1][1])),s[t][r][2].push(...n(...s[t][r][1][2])),s[t][r][2].push(...n(...s[t][r][1][3]))}for(let t=0;t&lt;8;++t){r[t]=[];for(let e=0;e&lt;8;++e)r[t][e]=[],r[t][e][0]=s[t][0][2][e],r[t][e][1]=s[t][1][2][e],r[t][e][2]=s[t][2][2][e],r[t][e][3]=s[t][3][2][e]}return r};class x{constructor(t,e){this.x=t||0,this.y=e||0}toString(){return`(x=${this.x}, y=${this.y})`}clone(){return new x(this.x,this.y)}add(t){return new x(this.x+t.x,this.y+t.y)}scale(t){return void 0===t.x?new x(this.x*t,this.y*t):new x(this.x*t.x,this.y*t.y)}distSquared(t){let e=this.x-t.x,s=this.y-t.y;return e*e+s*s}transform(t){let e=this.x*t.a+this.y*t.c+t.e,s=this.x*t.b+this.y*t.d+t.f;return new x(e,s)}}class g{constructor(t,e,s,r,n,o){void 0===t?(this.a=1,this.b=0,this.c=0,this.d=1,this.e=0,this.f=0):(this.a=t,this.b=e,this.c=s,this.d=r,this.e=n,this.f=o)}toString(){return`affine: ${this.a} ${this.c} ${this.e} \n       ${this.b} ${this.d} ${this.f}`}append(t){t instanceof g||console.error(&quot;mesh.js: argument to Affine.append is not affine!&quot;);let e=this.a*t.a+this.c*t.b,s=this.b*t.a+this.d*t.b,r=this.a*t.c+this.c*t.d,n=this.b*t.c+this.d*t.d,o=this.a*t.e+this.c*t.f+this.e,i=this.b*t.e+this.d*t.f+this.f;return new g(e,s,r,n,o,i)}}class w{constructor(t,e){this.nodes=t,this.colors=e}paintCurve(t,e){if(o(this.nodes)&gt;r){const s=n(...this.nodes);let r=[[],[]],o=[[],[]];for(let t=0;t&lt;4;++t)r[0][t]=this.colors[0][t],r[1][t]=(this.colors[0][t]+this.colors[1][t])/2,o[0][t]=r[1][t],o[1][t]=this.colors[1][t];let i=new w(s[0],r),a=new w(s[1],o);i.paintCurve(t,e),a.paintCurve(t,e)}else{let s=Math.round(this.nodes[0].x);if(s&gt;=0&amp;&amp;s&lt;e){let r=4*(~~this.nodes[0].y*e+s);t[r]=Math.round(this.colors[0][0]),t[r+1]=Math.round(this.colors[0][1]),t[r+2]=Math.round(this.colors[0][2]),t[r+3]=Math.round(this.colors[0][3])}}}}class m{constructor(t,e){this.nodes=t,this.colors=e}split(){let t=[[],[],[],[]],e=[[],[],[],[]],s=[[[],[]],[[],[]]],r=[[[],[]],[[],[]]];for(let s=0;s&lt;4;++s){const r=n(this.nodes[0][s],this.nodes[1][s],this.nodes[2][s],this.nodes[3][s]);t[0][s]=r[0][0],t[1][s]=r[0][1],t[2][s]=r[0][2],t[3][s]=r[0][3],e[0][s]=r[1][0],e[1][s]=r[1][1],e[2][s]=r[1][2],e[3][s]=r[1][3]}for(let t=0;t&lt;4;++t)s[0][0][t]=this.colors[0][0][t],s[0][1][t]=this.colors[0][1][t],s[1][0][t]=(this.colors[0][0][t]+this.colors[1][0][t])/2,s[1][1][t]=(this.colors[0][1][t]+this.colors[1][1][t])/2,r[0][0][t]=s[1][0][t],r[0][1][t]=s[1][1][t],r[1][0][t]=this.colors[1][0][t],r[1][1][t]=this.colors[1][1][t];return[new m(t,s),new m(e,r)]}paint(t,e){let s,n=!1;for(let t=0;t&lt;4;++t)if((s=o([this.nodes[0][t],this.nodes[1][t],this.nodes[2][t],this.nodes[3][t]]))&gt;r){n=!0;break}if(n){let s=this.split();s[0].paint(t,e),s[1].paint(t,e)}else{new w([...this.nodes[0]],[...this.colors[0]]).paintCurve(t,e)}}}class b{constructor(t){this.readMesh(t),this.type=t.getAttribute(&quot;type&quot;)||&quot;bilinear&quot;}readMesh(t){let e=[[]],s=[[]],r=Number(t.getAttribute(&quot;x&quot;)),n=Number(t.getAttribute(&quot;y&quot;));e[0][0]=new x(r,n);let o=t.children;for(let t=0,r=o.length;t&lt;r;++t){e[3*t+1]=[],e[3*t+2]=[],e[3*t+3]=[],s[t+1]=[];let r=o[t].children;for(let n=0,o=r.length;n&lt;o;++n){let o=r[n].children;for(let r=0,i=o.length;r&lt;i;++r){let i=r;0!==t&amp;&amp;++i;let h,d=o[r].getAttribute(&quot;path&quot;),c=&quot;l&quot;;null!=d&amp;&amp;(c=(h=d.match(/\s*([lLcC])\s*(.*)/))[1]);let u=l(h[2]);switch(c){case&quot;l&quot;:0===i?(e[3*t][3*n+3]=u[0].add(e[3*t][3*n]),e[3*t][3*n+1]=a(e[3*t][3*n],e[3*t][3*n+3]),e[3*t][3*n+2]=a(e[3*t][3*n+3],e[3*t][3*n])):1===i?(e[3*t+3][3*n+3]=u[0].add(e[3*t][3*n+3]),e[3*t+1][3*n+3]=a(e[3*t][3*n+3],e[3*t+3][3*n+3]),e[3*t+2][3*n+3]=a(e[3*t+3][3*n+3],e[3*t][3*n+3])):2===i?(0===n&amp;&amp;(e[3*t+3][3*n+0]=u[0].add(e[3*t+3][3*n+3])),e[3*t+3][3*n+1]=a(e[3*t+3][3*n],e[3*t+3][3*n+3]),e[3*t+3][3*n+2]=a(e[3*t+3][3*n+3],e[3*t+3][3*n])):(e[3*t+1][3*n]=a(e[3*t][3*n],e[3*t+3][3*n]),e[3*t+2][3*n]=a(e[3*t+3][3*n],e[3*t][3*n]));break;case&quot;L&quot;:0===i?(e[3*t][3*n+3]=u[0],e[3*t][3*n+1]=a(e[3*t][3*n],e[3*t][3*n+3]),e[3*t][3*n+2]=a(e[3*t][3*n+3],e[3*t][3*n])):1===i?(e[3*t+3][3*n+3]=u[0],e[3*t+1][3*n+3]=a(e[3*t][3*n+3],e[3*t+3][3*n+3]),e[3*t+2][3*n+3]=a(e[3*t+3][3*n+3],e[3*t][3*n+3])):2===i?(0===n&amp;&amp;(e[3*t+3][3*n+0]=u[0]),e[3*t+3][3*n+1]=a(e[3*t+3][3*n],e[3*t+3][3*n+3]),e[3*t+3][3*n+2]=a(e[3*t+3][3*n+3],e[3*t+3][3*n])):(e[3*t+1][3*n]=a(e[3*t][3*n],e[3*t+3][3*n]),e[3*t+2][3*n]=a(e[3*t+3][3*n],e[3*t][3*n]));break;case&quot;c&quot;:0===i?(e[3*t][3*n+1]=u[0].add(e[3*t][3*n]),e[3*t][3*n+2]=u[1].add(e[3*t][3*n]),e[3*t][3*n+3]=u[2].add(e[3*t][3*n])):1===i?(e[3*t+1][3*n+3]=u[0].add(e[3*t][3*n+3]),e[3*t+2][3*n+3]=u[1].add(e[3*t][3*n+3]),e[3*t+3][3*n+3]=u[2].add(e[3*t][3*n+3])):2===i?(e[3*t+3][3*n+2]=u[0].add(e[3*t+3][3*n+3]),e[3*t+3][3*n+1]=u[1].add(e[3*t+3][3*n+3]),0===n&amp;&amp;(e[3*t+3][3*n+0]=u[2].add(e[3*t+3][3*n+3]))):(e[3*t+2][3*n]=u[0].add(e[3*t+3][3*n]),e[3*t+1][3*n]=u[1].add(e[3*t+3][3*n]));break;case&quot;C&quot;:0===i?(e[3*t][3*n+1]=u[0],e[3*t][3*n+2]=u[1],e[3*t][3*n+3]=u[2]):1===i?(e[3*t+1][3*n+3]=u[0],e[3*t+2][3*n+3]=u[1],e[3*t+3][3*n+3]=u[2]):2===i?(e[3*t+3][3*n+2]=u[0],e[3*t+3][3*n+1]=u[1],0===n&amp;&amp;(e[3*t+3][3*n+0]=u[2])):(e[3*t+2][3*n]=u[0],e[3*t+1][3*n]=u[1]);break;default:console.error(&quot;mesh.js: &quot;+c+&quot; invalid path type.&quot;)}if(0===t&amp;&amp;0===n||r&gt;0){let e=window.getComputedStyle(o[r]).stopColor.match(/^rgb\s*\(\s*(\d+)\s*,\s*(\d+)\s*,\s*(\d+)\s*\)$/i),a=window.getComputedStyle(o[r]).stopOpacity,h=255;a&amp;&amp;(h=Math.floor(255*a)),e&amp;&amp;(0===i?(s[t][n]=[],s[t][n][0]=Math.floor(e[1]),s[t][n][1]=Math.floor(e[2]),s[t][n][2]=Math.floor(e[3]),s[t][n][3]=h):1===i?(s[t][n+1]=[],s[t][n+1][0]=Math.floor(e[1]),s[t][n+1][1]=Math.floor(e[2]),s[t][n+1][2]=Math.floor(e[3]),s[t][n+1][3]=h):2===i?(s[t+1][n+1]=[],s[t+1][n+1][0]=Math.floor(e[1]),s[t+1][n+1][1]=Math.floor(e[2]),s[t+1][n+1][2]=Math.floor(e[3]),s[t+1][n+1][3]=h):3===i&amp;&amp;(s[t+1][n]=[],s[t+1][n][0]=Math.floor(e[1]),s[t+1][n][1]=Math.floor(e[2]),s[t+1][n][2]=Math.floor(e[3]),s[t+1][n][3]=h))}}e[3*t+1][3*n+1]=new x,e[3*t+1][3*n+2]=new x,e[3*t+2][3*n+1]=new x,e[3*t+2][3*n+2]=new x,e[3*t+1][3*n+1].x=(-4*e[3*t][3*n].x+6*(e[3*t][3*n+1].x+e[3*t+1][3*n].x)+-2*(e[3*t][3*n+3].x+e[3*t+3][3*n].x)+3*(e[3*t+3][3*n+1].x+e[3*t+1][3*n+3].x)+-1*e[3*t+3][3*n+3].x)/9,e[3*t+1][3*n+2].x=(-4*e[3*t][3*n+3].x+6*(e[3*t][3*n+2].x+e[3*t+1][3*n+3].x)+-2*(e[3*t][3*n].x+e[3*t+3][3*n+3].x)+3*(e[3*t+3][3*n+2].x+e[3*t+1][3*n].x)+-1*e[3*t+3][3*n].x)/9,e[3*t+2][3*n+1].x=(-4*e[3*t+3][3*n].x+6*(e[3*t+3][3*n+1].x+e[3*t+2][3*n].x)+-2*(e[3*t+3][3*n+3].x+e[3*t][3*n].x)+3*(e[3*t][3*n+1].x+e[3*t+2][3*n+3].x)+-1*e[3*t][3*n+3].x)/9,e[3*t+2][3*n+2].x=(-4*e[3*t+3][3*n+3].x+6*(e[3*t+3][3*n+2].x+e[3*t+2][3*n+3].x)+-2*(e[3*t+3][3*n].x+e[3*t][3*n+3].x)+3*(e[3*t][3*n+2].x+e[3*t+2][3*n].x)+-1*e[3*t][3*n].x)/9,e[3*t+1][3*n+1].y=(-4*e[3*t][3*n].y+6*(e[3*t][3*n+1].y+e[3*t+1][3*n].y)+-2*(e[3*t][3*n+3].y+e[3*t+3][3*n].y)+3*(e[3*t+3][3*n+1].y+e[3*t+1][3*n+3].y)+-1*e[3*t+3][3*n+3].y)/9,e[3*t+1][3*n+2].y=(-4*e[3*t][3*n+3].y+6*(e[3*t][3*n+2].y+e[3*t+1][3*n+3].y)+-2*(e[3*t][3*n].y+e[3*t+3][3*n+3].y)+3*(e[3*t+3][3*n+2].y+e[3*t+1][3*n].y)+-1*e[3*t+3][3*n].y)/9,e[3*t+2][3*n+1].y=(-4*e[3*t+3][3*n].y+6*(e[3*t+3][3*n+1].y+e[3*t+2][3*n].y)+-2*(e[3*t+3][3*n+3].y+e[3*t][3*n].y)+3*(e[3*t][3*n+1].y+e[3*t+2][3*n+3].y)+-1*e[3*t][3*n+3].y)/9,e[3*t+2][3*n+2].y=(-4*e[3*t+3][3*n+3].y+6*(e[3*t+3][3*n+2].y+e[3*t+2][3*n+3].y)+-2*(e[3*t+3][3*n].y+e[3*t][3*n+3].y)+3*(e[3*t][3*n+2].y+e[3*t+2][3*n].y)+-1*e[3*t][3*n].y)/9}}this.nodes=e,this.colors=s}paintMesh(t,e){let s=(this.nodes.length-1)/3,r=(this.nodes[0].length-1)/3;if(&quot;bilinear&quot;===this.type||s&lt;2||r&lt;2){let n;for(let o=0;o&lt;s;++o)for(let s=0;s&lt;r;++s){let r=[];for(let t=3*o,e=3*o+4;t&lt;e;++t)r.push(this.nodes[t].slice(3*s,3*s+4));let i=[];i.push(this.colors[o].slice(s,s+2)),i.push(this.colors[o+1].slice(s,s+2)),(n=new m(r,i)).paint(t,e)}}else{let n,o,a,h,l,d,u;const x=s,g=r;s++,r++;let w=new Array(s);for(let t=0;t&lt;s;++t){w[t]=new Array(r);for(let e=0;e&lt;r;++e)w[t][e]=[],w[t][e][0]=this.nodes[3*t][3*e],w[t][e][1]=this.colors[t][e]}for(let t=0;t&lt;s;++t)for(let e=0;e&lt;r;++e)0!==t&amp;&amp;t!==x&amp;&amp;(n=i(w[t-1][e][0],w[t][e][0]),o=i(w[t+1][e][0],w[t][e][0]),w[t][e][2]=c(w[t-1][e][1],w[t][e][1],w[t+1][e][1],n,o)),0!==e&amp;&amp;e!==g&amp;&amp;(n=i(w[t][e-1][0],w[t][e][0]),o=i(w[t][e+1][0],w[t][e][0]),w[t][e][3]=c(w[t][e-1][1],w[t][e][1],w[t][e+1][1],n,o));for(let t=0;t&lt;r;++t){w[0][t][2]=[],w[x][t][2]=[];for(let e=0;e&lt;4;++e)n=i(w[1][t][0],w[0][t][0]),o=i(w[x][t][0],w[x-1][t][0]),w[0][t][2][e]=n&gt;0?2*(w[1][t][1][e]-w[0][t][1][e])/n-w[1][t][2][e]:0,w[x][t][2][e]=o&gt;0?2*(w[x][t][1][e]-w[x-1][t][1][e])/o-w[x-1][t][2][e]:0}for(let t=0;t&lt;s;++t){w[t][0][3]=[],w[t][g][3]=[];for(let e=0;e&lt;4;++e)n=i(w[t][1][0],w[t][0][0]),o=i(w[t][g][0],w[t][g-1][0]),w[t][0][3][e]=n&gt;0?2*(w[t][1][1][e]-w[t][0][1][e])/n-w[t][1][3][e]:0,w[t][g][3][e]=o&gt;0?2*(w[t][g][1][e]-w[t][g-1][1][e])/o-w[t][g-1][3][e]:0}for(let s=0;s&lt;x;++s)for(let r=0;r&lt;g;++r){let n=i(w[s][r][0],w[s+1][r][0]),o=i(w[s][r+1][0],w[s+1][r+1][0]),c=i(w[s][r][0],w[s][r+1][0]),x=i(w[s+1][r][0],w[s+1][r+1][0]),g=[[],[],[],[]];for(let t=0;t&lt;4;++t){(d=[])[0]=w[s][r][1][t],d[1]=w[s+1][r][1][t],d[2]=w[s][r+1][1][t],d[3]=w[s+1][r+1][1][t],d[4]=w[s][r][2][t]*n,d[5]=w[s+1][r][2][t]*n,d[6]=w[s][r+1][2][t]*o,d[7]=w[s+1][r+1][2][t]*o,d[8]=w[s][r][3][t]*c,d[9]=w[s+1][r][3][t]*x,d[10]=w[s][r+1][3][t]*c,d[11]=w[s+1][r+1][3][t]*x,d[12]=0,d[13]=0,d[14]=0,d[15]=0,u=f(d);for(let e=0;e&lt;9;++e){g[t][e]=[];for(let s=0;s&lt;9;++s)g[t][e][s]=p(u,e/8,s/8),g[t][e][s]&gt;255?g[t][e][s]=255:g[t][e][s]&lt;0&amp;&amp;(g[t][e][s]=0)}}h=[];for(let t=3*s,e=3*s+4;t&lt;e;++t)h.push(this.nodes[t].slice(3*r,3*r+4));l=y(h);for(let s=0;s&lt;8;++s)for(let r=0;r&lt;8;++r)(a=new m(l[s][r],[[[g[0][s][r],g[1][s][r],g[2][s][r],g[3][s][r]],[g[0][s][r+1],g[1][s][r+1],g[2][s][r+1],g[3][s][r+1]]],[[g[0][s+1][r],g[1][s+1][r],g[2][s+1][r],g[3][s+1][r]],[g[0][s+1][r+1],g[1][s+1][r+1],g[2][s+1][r+1],g[3][s+1][r+1]]]])).paint(t,e)}}}transform(t){if(t instanceof x)for(let e=0,s=this.nodes.length;e&lt;s;++e)for(let s=0,r=this.nodes[0].length;s&lt;r;++s)this.nodes[e][s]=this.nodes[e][s].add(t);else if(t instanceof g)for(let e=0,s=this.nodes.length;e&lt;s;++e)for(let s=0,r=this.nodes[0].length;s&lt;r;++s)this.nodes[e][s]=this.nodes[e][s].transform(t)}scale(t){for(let e=0,s=this.nodes.length;e&lt;s;++e)for(let s=0,r=this.nodes[0].length;s&lt;r;++s)this.nodes[e][s]=this.nodes[e][s].scale(t)}}document.querySelectorAll(&quot;rect,circle,ellipse,path,text&quot;).forEach((r,n)=&gt;{let o=r.getAttribute(&quot;id&quot;);o||(o=&quot;patchjs_shape&quot;+n,r.setAttribute(&quot;id&quot;,o));const i=r.style.fill.match(/^url\(\s*&quot;?\s*#([^\s&quot;]+)&quot;?\s*\)/),a=r.style.stroke.match(/^url\(\s*&quot;?\s*#([^\s&quot;]+)&quot;?\s*\)/);if(i&amp;&amp;i[1]){const a=document.getElementById(i[1]);if(a&amp;&amp;&quot;meshgradient&quot;===a.nodeName){const i=r.getBBox();let l=document.createElementNS(s,&quot;canvas&quot;);d(l,{width:i.width,height:i.height});const c=l.getContext(&quot;2d&quot;);let u=c.createImageData(i.width,i.height);const f=new b(a);&quot;objectBoundingBox&quot;===a.getAttribute(&quot;gradientUnits&quot;)&amp;&amp;f.scale(new x(i.width,i.height));const p=a.getAttribute(&quot;gradientTransform&quot;);null!=p&amp;&amp;f.transform(h(p)),&quot;userSpaceOnUse&quot;===a.getAttribute(&quot;gradientUnits&quot;)&amp;&amp;f.transform(new x(-i.x,-i.y)),f.paintMesh(u.data,l.width),c.putImageData(u,0,0);const y=document.createElementNS(t,&quot;image&quot;);d(y,{width:i.width,height:i.height,x:i.x,y:i.y});let g=l.toDataURL();y.setAttributeNS(e,&quot;xlink:href&quot;,g),r.parentNode.insertBefore(y,r),r.style.fill=&quot;none&quot;;const w=document.createElementNS(t,&quot;use&quot;);w.setAttributeNS(e,&quot;xlink:href&quot;,&quot;#&quot;+o);const m=&quot;patchjs_clip&quot;+n,M=document.createElementNS(t,&quot;clipPath&quot;);M.setAttribute(&quot;id&quot;,m),M.appendChild(w),r.parentElement.insertBefore(M,r),y.setAttribute(&quot;clip-path&quot;,&quot;url(#&quot;+m+&quot;)&quot;),u=null,l=null,g=null}}if(a&amp;&amp;a[1]){const o=document.getElementById(a[1]);if(o&amp;&amp;&quot;meshgradient&quot;===o.nodeName){const i=parseFloat(r.style.strokeWidth.slice(0,-2))*(parseFloat(r.style.strokeMiterlimit)||parseFloat(r.getAttribute(&quot;stroke-miterlimit&quot;))||1),a=r.getBBox(),l=Math.trunc(a.width+i),c=Math.trunc(a.height+i),u=Math.trunc(a.x-i/2),f=Math.trunc(a.y-i/2);let p=document.createElementNS(s,&quot;canvas&quot;);d(p,{width:l,height:c});const y=p.getContext(&quot;2d&quot;);let g=y.createImageData(l,c);const w=new b(o);&quot;objectBoundingBox&quot;===o.getAttribute(&quot;gradientUnits&quot;)&amp;&amp;w.scale(new x(l,c));const m=o.getAttribute(&quot;gradientTransform&quot;);null!=m&amp;&amp;w.transform(h(m)),&quot;userSpaceOnUse&quot;===o.getAttribute(&quot;gradientUnits&quot;)&amp;&amp;w.transform(new x(-u,-f)),w.paintMesh(g.data,p.width),y.putImageData(g,0,0);const M=document.createElementNS(t,&quot;image&quot;);d(M,{width:l,height:c,x:0,y:0});let S=p.toDataURL();M.setAttributeNS(e,&quot;xlink:href&quot;,S);const k=&quot;pattern_clip&quot;+n,A=document.createElementNS(t,&quot;pattern&quot;);d(A,{id:k,patternUnits:&quot;userSpaceOnUse&quot;,width:l,height:c,x:u,y:f}),A.appendChild(M),o.parentNode.appendChild(A),r.style.stroke=&quot;url(#&quot;+k+&quot;)&quot;,g=null,p=null,S=null}}})}();
</script>
</svg>
